<svg version="1.1" viewBox="0 0 200 200" xmlns="http://www.w3.org/2000/svg" xmlns:cc="http://creativecommons.org/ns#" xmlns:dc="http://purl.org/dc/elements/1.1/" xmlns:rdf="http://www.w3.org/1999/02/22-rdf-syntax-ns#">
 <g transform="translate(0 0)" stroke="#000">
  <rect x="1" y="1" width="198" height="198" fill="white" />
  <g fill="none">
   <g stroke-linejoin="bevel">
    <circle cx="100" cy="100" r="75"/>
    <path d="m46.967 133.03a20 20 0 0 0-12.045 4.0566 75 75 0 0 0 27.959 28.016 20 20 0 0 0 4.0859-12.072 20 20 0 0 0-20-20z"/>
    <path d="m100 155a20 20 0 0 0-19.787 17.258 75 75 0 0 0 19.787 2.7422 75 75 0 0 0 19.797-2.6719 20 20 0 0 0-19.797-17.328z"/>
    <path d="m153.03 133.03a20 20 0 0 0-20 20 20 20 0 0 0 4.0586 12.047 75 75 0 0 0 28.014-27.961 20 20 0 0 0-12.072-4.0859z"/>
    <path d="m172.33 80.203a20 20 0 0 0-17.328 19.797 20 20 0 0 0 17.258 19.787 75 75 0 0 0 2.7422-19.787 75 75 0 0 0-2.6719-19.797z"/>
    <path d="m137.12 34.895a20 20 0 0 0-4.0859 12.072 20 20 0 0 0 20 20 20 20 0 0 0 12.045-4.0566 75 75 0 0 0-27.959-28.016z"/>
    <path d="m100 25a75 75 0 0 0-19.797 2.6719 20 20 0 0 0 19.797 17.328 20 20 0 0 0 19.787-17.258 75 75 0 0 0-19.787-2.7422z"/>
    <path d="m62.91 34.922a75 75 0 0 0-28.016 27.959 20 20 0 0 0 12.072 4.0859 20 20 0 0 0 20-20 20 20 0 0 0-4.0566-12.045z"/>
    <path d="m27.742 80.213a75 75 0 0 0-2.7422 19.787 75 75 0 0 0 2.6719 19.797 20 20 0 0 0 17.328-19.797 20 20 0 0 0-17.258-19.787z"/>
   </g>
   <g stroke-width="1px">
    <path d="m45 100h110"/>
    <path d="m61.109 138.88 77.782-77.782"/>
    <path d="m100 155-2.1e-5 -110"/>
    <path d="m138.89 138.89-77.782-77.782"/>
   </g>
   <style>
    .small {
      font: 8px sans-serif;
      fill: black;
    }
  </style>
  <text transform="translate(9 -2)" x="100" y="100" class="small">C</text>

  <text transform="translate(-5 -3)" x="100" y="45" class="small">1M</text>
  <text transform="translate(0 -3)" x="138.88" y="61.109" class="small">2M</text>
  <text transform="translate(3 3)" x="155" y="100" class="small">3M</text>
  <text transform="translate(2 6)" x="138.89" y="138.89" class="small">4M</text>
  <text transform="translate(-5 9)" x="100" y="155" class="small">5M</text>
  <text transform="translate(-11 8)" x="61.109" y="138.88" class="small">6M</text>
  <text transform="translate(-13 3)" x="45" y="100" class="small">7M</text>
  <text transform="translate(-11 -2)" x="61.109" y="61.109" class="small">8M</text>

  <text transform="translate(-5 -3)" x="80.213" y="27.742" class="small">1L</text>
  <text transform="translate(0 -3)" x="137.09" y="34.922" class="small">2L</text>
  <text transform="translate(3 3)" x="172.258" y="80.213" class="small">3L</text>
  <text transform="translate(2 6)" x="165.078" y="137.09" class="small">4L</text>
  <text transform="translate(-5 9)" x="119.787" y="172.258" class="small">5L</text>
  <text transform="translate(-11 8)" x="62.91" y="165.078" class="small">6L</text>
  <text transform="translate(-13 3)" x="27.742" y="119.787" class="small">7L</text>
  <text transform="translate(-11 -2)" x="34.922" y="62.91" class="small">8L</text>

  <text transform="translate(-5 -3)" x="119.787" y="27.742" class="small">1R</text>
  <text transform="translate(0 -3)" x="165.078" y="62.91" class="small">2R</text>
  <text transform="translate(3 3)" x="172.258" y="119.787" class="small">3R</text>
  <text transform="translate(2 6)" x="137.09" y="165.078" class="small">4R</text>
  <text transform="translate(-5 9)" x="80.213" y="172.258" class="small">5R</text>
  <text transform="translate(-11 8)" x="34.922" y="137.09" class="small">6R</text>
  <text transform="translate(-13 3)" x="27.742" y="80.213" class="small">7R</text>
  <text transform="translate(-11 -2)" x="62.91" y="34.922" class="small">8R</text>

  </g>
  </g>
</svg>
